<?xml version="1.0" encoding="UTF-8"?>
<!DOCTYPE svg PUBLIC "-//W3C//DTD SVG 1.1//EN" "http://www.w3.org/Graphics/SVG/1.1/DTD/svg11.dtd">
<svg xmlns="http://www.w3.org/2000/svg" version="1.1" width="400px" height="312px" style="shape-rendering:geometricPrecision; text-rendering:geometricPrecision; image-rendering:optimizeQuality; fill-rule:evenodd; clip-rule:evenodd" xmlns:xlink="http://www.w3.org/1999/xlink">
<g><path style="opacity:1" fill="#fefefd" d="M -0.5,-0.5 C 132.833,-0.5 266.167,-0.5 399.5,-0.5C 399.5,103.5 399.5,207.5 399.5,311.5C 266.167,311.5 132.833,311.5 -0.5,311.5C -0.5,207.5 -0.5,103.5 -0.5,-0.5 Z"/></g>
<g><path style="opacity:1" fill="#221e1f" d="M 67.5,290.5 C 66.8826,290.611 66.3826,290.944 66,291.5C 65.8091,289.292 65.3091,287.292 64.5,285.5C 64.5,284.833 64.5,284.167 64.5,283.5C 64.8064,280.615 64.4731,277.948 63.5,275.5C 44.6711,274.668 25.6711,274.168 6.5,274C 7.25244,273.329 7.58577,272.496 7.5,271.5C 71.0886,182.656 134.922,93.989 199,5.5C 200.261,5.75908 201.261,6.42575 202,7.5C 226.112,41.9454 250.612,76.1121 275.5,110C 276.833,110.667 278.167,110.667 279.5,110C 289.382,105.226 299.382,100.726 309.5,96.5C 309.833,96.8333 310.167,97.1667 310.5,97.5C 288.814,122.019 267.314,146.685 246,171.5C 231.027,150.36 215.86,129.36 200.5,108.5C 199.998,107.479 199.332,107.312 198.5,108C 154.946,168.951 111.28,229.784 67.5,290.5 Z"/></g>
<g><path style="opacity:1" fill="#ee6916" d="M 356.5,58.5 C 357.043,58.56 357.376,58.8933 357.5,59.5C 319.92,127.661 282.087,195.661 244,263.5C 227.008,242.513 209.342,222.18 191,202.5C 150.924,235.236 111.424,268.736 72.5,303C 71.6683,303.688 71.0016,303.521 70.5,302.5C 113.527,243.306 156.36,183.973 199,124.5C 214.578,145.323 229.911,166.323 245,187.5C 282.75,144.923 319.916,101.923 356.5,58.5 Z"/></g>
<g><path style="opacity:1" fill="#231f20" d="M 392.5,273.5 C 368.006,274.498 343.339,274.831 318.5,274.5C 310.71,262.566 302.21,251.232 293,240.5C 282.719,248.443 272.719,256.776 263,265.5C 279.738,232.03 297.071,198.697 315,165.5C 341.097,201.382 366.931,237.382 392.5,273.5 Z"/></g>
<g><path style="opacity:1" fill="#3e3a3b" d="M 7.5,271.5 C 7.58577,272.496 7.25244,273.329 6.5,274C 25.6711,274.168 44.6711,274.668 63.5,275.5C 43.8333,275.5 24.1667,275.5 4.5,275.5C 5.02561,273.77 6.02561,272.436 7.5,271.5 Z"/></g>
<g><path style="opacity:1" fill="#5a5758" d="M 392.5,273.5 C 393.289,273.783 393.956,274.283 394.5,275C 368.997,275.83 343.663,275.663 318.5,274.5C 343.339,274.831 368.006,274.498 392.5,273.5 Z"/></g>
<g><path style="opacity:1" fill="#e1e1e1" d="M 4.5,275.5 C 24.1667,275.5 43.8333,275.5 63.5,275.5C 64.4731,277.948 64.8064,280.615 64.5,283.5C 63.5318,281.393 63.1984,279.059 63.5,276.5C 43.6596,276.83 23.9929,276.497 4.5,275.5 Z"/></g>
<g><path style="opacity:1" fill="#b6b5b5" d="M 64.5,285.5 C 65.3091,287.292 65.8091,289.292 66,291.5C 66.3826,290.944 66.8826,290.611 67.5,290.5C 67.1788,292.048 66.1788,292.715 64.5,292.5C 64.5,290.167 64.5,287.833 64.5,285.5 Z"/></g>
</svg>
